<?xml version="1.0" standalone="no"?>
<!DOCTYPE svg PUBLIC "-//W3C//DTD SVG 20010904//EN"
 "http://www.w3.org/TR/2001/REC-SVG-20010904/DTD/svg10.dtd">
<svg version="1.0" xmlns="http://www.w3.org/2000/svg"
 width="700.000000pt" height="700.000000pt" viewBox="0 0 700.000000 700.000000"
 preserveAspectRatio="xMidYMid meet">
<metadata>
Created by potrace 1.14, written by Peter Selinger 2001-2017
</metadata>
<g transform="translate(0.000000,700.000000) scale(0.100000,-0.100000)"
fill="#000000" stroke="none">
<path d="M1107 6286 c-15 -14 -32 -37 -37 -51 -6 -17 -10 -307 -10 -781 l0
-754 73 0 c148 0 326 -66 444 -162 190 -158 582 -665 809 -1048 l30 -52 29 69
c62 148 221 478 322 668 362 684 748 1259 1181 1758 52 60 90 112 86 117 -18
17 -244 109 -364 148 -155 51 -187 59 -325 85 -105 19 -153 20 -1161 24
l-1050 4 -27 -25z"/>
<path d="M4734 5298 c-603 -702 -1124 -1581 -1509 -2553 -86 -217 -192 -519
-240 -685 -36 -124 -77 -202 -145 -270 -190 -191 -496 -200 -694 -19 -75 68
-102 115 -196 337 -101 238 -281 600 -390 787 -112 191 -311 488 -412 615
l-83 105 -3 -1129 c-2 -1267 -9 -1161 74 -1197 43 -19 71 -20 1051 -16 898 3
1019 5 1108 20 233 40 434 100 667 198 115 48 118 48 174 38 103 -19 233 -69
487 -185 621 -286 975 -442 1012 -448 91 -15 122 29 89 124 -11 30 -141 264
-289 520 -276 476 -393 693 -415 767 l-13 41 75 119 c258 406 397 879 398
1348 0 176 -43 450 -103 657 -76 260 -246 587 -416 797 -60 74 -119 141 -125
141 -3 0 -48 -51 -102 -112z"/>
</g>
</svg>
