<svg version="1.1" xmlns="http://www.w3.org/2000/svg" viewBox="0 0 523.7507019042969 156.06591796875009" width="523.7507019042969" height="156.06591796875009">
  <!-- svg-source:excalidraw -->
  
  <defs>
    <style class="style-fonts">
      @font-face {
        font-family: "Virgil";
        src: url("https://excalidraw.com/Virgil.woff2");
      }
      @font-face {
        font-family: "Cascadia";
        src: url("https://excalidraw.com/Cascadia.woff2");
      }
    </style>
    
  </defs>
  <rect x="0" y="0" width="523.7507019042969" height="156.06591796875009" fill="#ffffff"></rect><g transform="translate(293.7507019042969 63.250762939453125) rotate(0 110 41.40757751464848)"><text x="0" y="0" font-family="Virgil, Segoe UI Emoji" font-size="66.25212402343757px" fill="#1e1e1e" text-anchor="start" style="white-space: pre;" direction="ltr" dominant-baseline="text-before-edge">Realms</text></g><g transform="translate(10 73.90097045898438) rotate(0 249.89842224121094 -28.5272216796875)" stroke="none"><path fill="#2f9e44" d="M -0.54,-2.42 Q -0.54,-2.42 0.41,-2.68 1.38,-2.94 2.69,-3.08 4.01,-3.23 5.62,-3.41 7.24,-3.60 8.89,-3.86 10.55,-4.13 11.93,-4.48 13.32,-4.82 14.79,-5.59 16.26,-6.36 17.65,-7.29 19.04,-8.23 21.59,-11.36 24.13,-14.50 25.94,-17.14 27.75,-19.78 29.26,-22.59 30.78,-25.40 32.26,-27.38 33.75,-29.36 34.19,-30.36 34.63,-31.35 35.34,-32.62 36.04,-33.90 37.14,-34.73 38.25,-35.56 40.59,-36.80 42.93,-38.04 44.13,-38.67 45.33,-39.30 46.53,-39.68 47.74,-40.07 49.40,-40.35 51.05,-40.63 52.15,-40.67 53.25,-40.72 54.94,-41.09 56.63,-41.46 57.99,-41.87 59.36,-42.28 61.23,-42.14 63.11,-42.00 65.33,-41.70 67.55,-41.39 68.55,-40.98 69.55,-40.57 70.80,-41.05 72.05,-41.52 73.25,-42.50 74.46,-43.48 76.56,-44.69 78.66,-45.90 80.55,-46.81 82.44,-47.73 83.21,-48.47 83.98,-49.21 85.19,-50.10 86.39,-50.98 87.86,-51.95 89.33,-52.92 91.31,-53.95 93.29,-54.98 94.80,-55.86 96.32,-56.75 97.68,-57.58 99.04,-58.41 100.25,-59.35 101.45,-60.29 102.78,-61.21 104.11,-62.13 105.19,-62.80 106.26,-63.48 107.60,-64.45 108.93,-65.41 111.18,-64.48 113.43,-63.55 114.29,-61.63 115.14,-59.70 116.00,-58.58 116.86,-57.45 117.61,-56.41 118.37,-55.36 119.53,-54.24 120.68,-53.12 121.59,-52.49 122.50,-51.85 123.52,-50.28 124.53,-48.71 125.25,-47.61 125.97,-46.52 126.79,-45.08 127.61,-43.63 128.56,-41.64 129.51,-39.64 130.24,-38.11 130.97,-36.58 131.72,-35.11 132.48,-33.64 133.03,-31.22 133.58,-28.80 134.22,-26.35 134.86,-23.91 135.38,-21.97 135.91,-20.04 136.21,-18.24 136.50,-16.43 136.84,-14.66 137.18,-12.90 140.21,-12.28 143.23,-11.66 147.31,-12.26 151.39,-12.86 155.60,-13.54 159.81,-14.21 163.37,-14.49 166.93,-14.77 169.16,-14.87 171.40,-14.97 172.60,-15.14 173.80,-15.31 175.55,-14.93 177.29,-14.54 179.66,-13.63 182.02,-12.71 183.87,-11.61 185.72,-10.52 186.95,-9.97 188.17,-9.41 189.63,-8.92 191.09,-8.43 192.58,-7.73 194.07,-7.03 194.30,-8.23 194.53,-9.43 196.67,-11.10 198.82,-12.77 200.71,-14.49 202.60,-16.21 204.16,-17.78 205.73,-19.34 206.65,-20.19 207.57,-21.03 208.04,-22.87 208.52,-24.70 209.81,-25.85 211.10,-26.99 215.15,-27.28 219.19,-27.57 224.75,-26.91 230.30,-26.26 234.77,-25.73 239.23,-25.20 241.60,-24.96 243.97,-24.71 245.17,-24.48 246.38,-24.25 248.18,-26.06 249.99,-27.87 251.43,-29.75 252.87,-31.63 254.01,-33.01 255.15,-34.39 255.96,-35.16 256.78,-35.93 258.22,-36.58 259.66,-37.24 262.27,-37.62 264.88,-38.00 268.05,-38.68 271.23,-39.37 274.21,-39.92 277.18,-40.48 280.20,-40.91 283.22,-41.34 284.89,-41.77 286.56,-42.20 288.30,-42.65 290.03,-43.09 291.38,-43.18 292.73,-43.27 294.63,-43.03 296.53,-42.79 298.31,-42.45 300.08,-42.11 301.26,-42.04 302.43,-41.96 304.19,-41.39 305.94,-40.81 307.23,-39.81 308.52,-38.81 309.75,-38.00 310.97,-37.20 311.92,-36.50 312.87,-35.80 314.52,-34.51 316.16,-33.23 316.72,-32.08 317.27,-30.92 317.55,-29.63 317.83,-28.34 318.26,-26.69 318.68,-25.04 318.80,-23.97 318.91,-22.89 319.66,-20.98 320.41,-19.07 320.70,-17.86 320.99,-16.64 321.57,-15.46 322.15,-14.27 322.90,-12.72 323.64,-11.16 324.55,-9.71 325.46,-8.27 326.65,-7.09 327.84,-5.91 328.84,-5.25 329.83,-4.59 331.05,-4.41 332.26,-4.23 333.33,-4.29 334.41,-4.34 335.51,-5.24 336.62,-6.14 340.91,-7.83 345.21,-9.52 348.84,-11.19 352.48,-12.87 355.28,-14.20 358.07,-15.53 363.68,-18.06 369.30,-20.58 377.04,-23.82 384.78,-27.06 392.23,-29.75 399.68,-32.43 404.79,-34.21 409.89,-35.99 412.27,-36.94 414.64,-37.90 415.49,-38.57 416.34,-39.25 416.15,-40.86 415.95,-42.47 417.58,-43.68 419.21,-44.88 422.54,-44.78 425.86,-44.69 429.70,-44.37 433.53,-44.06 436.16,-43.67 438.79,-43.27 440.57,-43.16 442.35,-43.04 443.56,-42.83 444.77,-42.62 445.97,-42.34 447.17,-42.07 448.56,-41.47 449.95,-40.87 451.93,-40.04 453.90,-39.20 455.44,-38.07 456.99,-36.93 458.22,-35.58 459.45,-34.23 459.90,-32.87 460.36,-31.51 460.91,-30.41 461.45,-29.30 462.03,-27.64 462.60,-25.97 463.35,-24.08 464.11,-22.19 465.23,-20.89 466.36,-19.60 467.66,-17.73 468.96,-15.86 470.18,-14.23 471.41,-12.61 472.48,-11.27 473.55,-9.94 474.33,-8.93 475.11,-7.93 475.92,-6.90 476.72,-5.87 477.50,-5.10 478.28,-4.34 479.32,-3.37 480.35,-2.39 481.43,-1.62 482.52,-0.85 483.76,-0.28 485.00,0.27 486.64,0.64 488.27,1.00 490.84,1.96 493.41,2.92 495.07,3.26 496.72,3.59 497.61,4.19 498.49,4.79 498.73,4.86 498.98,4.94 499.19,5.07 499.41,5.20 499.58,5.38 499.76,5.56 499.89,5.78 500.02,6.00 500.09,6.24 500.16,6.48 500.18,6.73 500.19,6.98 500.14,7.23 500.10,7.48 499.99,7.71 499.89,7.94 499.73,8.13 499.57,8.33 499.37,8.49 499.17,8.64 498.94,8.74 498.71,8.84 498.46,8.89 498.22,8.93 497.96,8.91 497.71,8.90 497.69,8.89 497.66,8.89 497.35,8.76 497.03,8.64 496.77,8.42 496.52,8.20 496.34,7.92 496.16,7.63 496.09,7.30 496.01,6.97 496.05,6.63 496.08,6.29 496.22,5.98 496.37,5.68 496.60,5.43 496.83,5.18 497.13,5.02 497.43,4.86 497.76,4.81 498.09,4.75 498.43,4.80 498.76,4.85 499.06,5.01 499.36,5.17 499.60,5.41 499.83,5.66 499.97,5.97 500.12,6.27 500.16,6.61 500.19,6.94 500.12,7.28 500.05,7.61 499.88,7.90 499.71,8.19 499.45,8.41 499.19,8.63 498.88,8.76 498.56,8.88 498.23,8.90 497.89,8.92 497.56,8.83 497.23,8.75 496.95,8.56 496.67,8.37 496.47,8.10 496.26,7.83 496.15,7.51 496.04,7.19 496.04,6.85 496.04,6.51 496.14,6.19 496.25,5.87 496.45,5.60 496.66,5.33 496.94,5.14 497.22,4.95 497.54,4.85 497.87,4.76 498.18,4.77 498.49,4.79 498.73,4.86 498.97,4.94 499.19,5.07 499.40,5.20 499.58,5.38 499.76,5.56 499.89,5.78 500.02,6.00 500.09,6.24 500.16,6.48 500.18,6.73 500.19,6.98 500.14,7.23 500.10,7.48 499.99,7.71 499.89,7.94 499.73,8.13 499.57,8.33 499.37,8.49 499.17,8.64 498.94,8.74 498.71,8.84 498.46,8.89 498.22,8.93 497.96,8.91 497.71,8.90 496.82,8.24 495.93,7.57 494.03,7.23 492.14,6.89 489.78,6.26 487.43,5.63 485.47,5.35 483.51,5.06 481.65,3.94 479.79,2.81 478.51,1.83 477.22,0.84 476.11,-0.25 474.99,-1.35 474.14,-2.38 473.29,-3.41 472.55,-4.55 471.80,-5.69 471.22,-6.70 470.64,-7.70 469.64,-9.05 468.65,-10.39 467.30,-11.98 465.95,-13.57 464.62,-15.15 463.29,-16.74 461.65,-18.42 460.01,-20.09 458.83,-22.10 457.65,-24.12 457.09,-25.46 456.54,-26.81 455.51,-29.37 454.47,-31.92 453.14,-33.19 451.81,-34.46 451.10,-35.32 450.39,-36.19 449.24,-36.55 448.09,-36.90 447.04,-37.47 445.99,-38.03 444.04,-38.76 442.09,-39.49 440.23,-39.63 438.37,-39.78 435.85,-39.99 433.33,-40.21 429.62,-40.30 425.91,-40.39 422.99,-40.70 420.06,-41.01 419.85,-39.56 419.64,-38.12 418.89,-37.28 418.13,-36.45 416.93,-35.85 415.74,-35.25 413.31,-34.23 410.88,-33.21 405.81,-31.38 400.74,-29.54 393.40,-26.81 386.05,-24.08 378.41,-20.76 370.76,-17.43 365.29,-14.80 359.81,-12.18 357.09,-10.64 354.37,-9.11 350.73,-7.13 347.09,-5.15 343.41,-3.40 339.72,-1.64 338.21,-0.50 336.71,0.62 334.69,0.89 332.66,1.15 331.51,0.95 330.35,0.75 328.74,0.01 327.13,-0.73 325.94,-1.61 324.75,-2.50 323.07,-3.92 321.40,-5.34 320.14,-6.94 318.88,-8.53 317.96,-10.01 317.04,-11.49 315.81,-14.10 314.58,-16.71 313.90,-18.47 313.22,-20.24 312.91,-22.34 312.60,-24.43 312.22,-26.08 311.84,-27.72 311.61,-29.00 311.39,-30.28 309.78,-31.44 308.17,-32.60 307.25,-33.23 306.33,-33.86 305.25,-35.05 304.17,-36.24 303.00,-36.88 301.83,-37.53 300.58,-37.71 299.33,-37.90 297.68,-38.17 296.03,-38.45 294.44,-38.61 292.85,-38.78 291.69,-38.80 290.54,-38.82 288.99,-38.75 287.44,-38.67 285.63,-38.24 283.83,-37.80 280.94,-37.22 278.06,-36.64 275.15,-35.86 272.23,-35.07 269.95,-34.38 267.66,-33.69 266.43,-33.43 265.20,-33.17 262.94,-32.81 260.68,-32.44 259.51,-32.09 258.34,-31.73 257.33,-30.50 256.32,-29.27 254.98,-27.07 253.63,-24.87 252.67,-23.67 251.70,-22.48 250.27,-21.29 248.84,-20.09 247.76,-20.23 246.68,-20.36 245.19,-20.93 243.70,-21.49 241.29,-21.63 238.88,-21.76 234.40,-22.14 229.92,-22.52 224.70,-22.96 219.48,-23.40 215.95,-23.13 212.41,-22.86 212.02,-21.41 211.63,-19.97 210.09,-18.38 208.54,-16.79 207.08,-15.01 205.61,-13.24 203.81,-11.21 202.01,-9.19 200.04,-7.19 198.08,-5.20 197.08,-4.76 196.09,-4.32 195.08,-3.44 194.07,-2.57 192.73,-2.73 191.38,-2.90 190.59,-3.62 189.80,-4.35 188.13,-5.27 186.45,-6.19 185.25,-6.93 184.04,-7.67 182.46,-8.59 180.87,-9.52 178.59,-10.27 176.30,-11.01 175.10,-11.46 173.91,-11.90 172.74,-11.96 171.58,-12.01 169.39,-11.85 167.20,-11.69 163.79,-11.34 160.37,-11.00 156.17,-10.20 151.96,-9.41 147.66,-8.62 143.36,-7.84 139.98,-7.70 136.60,-7.56 135.52,-8.30 134.44,-9.04 134.04,-10.64 133.65,-12.23 133.30,-14.08 132.95,-15.94 132.78,-17.51 132.60,-19.09 132.02,-20.99 131.45,-22.89 130.63,-25.35 129.81,-27.80 129.21,-29.72 128.60,-31.64 127.79,-33.15 126.98,-34.67 126.31,-36.06 125.64,-37.45 124.45,-39.25 123.25,-41.04 122.44,-42.33 121.62,-43.62 120.45,-45.66 119.28,-47.70 118.12,-48.54 116.97,-49.39 115.63,-50.99 114.30,-52.58 113.69,-53.55 113.07,-54.51 111.85,-56.05 110.63,-57.60 110.65,-59.37 110.68,-61.15 109.59,-60.34 108.50,-59.54 107.51,-59.04 106.52,-58.55 105.28,-57.73 104.04,-56.92 102.63,-55.85 101.22,-54.78 99.85,-53.97 98.47,-53.16 96.98,-52.24 95.49,-51.32 93.82,-50.16 92.15,-48.99 90.75,-47.90 89.35,-46.81 88.18,-46.23 87.02,-45.65 85.83,-44.71 84.64,-43.76 83.05,-42.76 81.46,-41.76 79.94,-40.53 78.43,-39.29 76.17,-37.09 73.91,-34.89 72.84,-34.34 71.77,-33.79 70.51,-33.74 69.25,-33.68 67.70,-34.52 66.15,-35.36 64.52,-35.62 62.89,-35.88 61.19,-36.15 59.49,-36.42 57.66,-36.09 55.83,-35.76 54.60,-35.53 53.38,-35.29 51.73,-35.31 50.08,-35.33 48.76,-35.18 47.44,-35.03 46.28,-34.48 45.13,-33.94 43.53,-33.00 41.93,-32.05 40.60,-31.81 39.28,-31.57 38.61,-30.53 37.95,-29.50 37.24,-28.44 36.53,-27.38 35.31,-25.55 34.09,-23.73 32.65,-20.67 31.22,-17.60 29.53,-14.66 27.83,-11.72 26.10,-9.14 24.37,-6.56 23.15,-5.12 21.93,-3.69 20.94,-3.09 19.94,-2.50 18.27,-1.73 16.60,-0.97 15.54,-0.58 14.47,-0.20 12.96,0.17 11.46,0.54 9.72,0.93 7.99,1.32 5.24,1.69 2.50,2.06 1.52,2.24 0.54,2.42 0.24,2.45 -0.04,2.48 -0.34,2.43 -0.64,2.39 -0.91,2.28 -1.19,2.17 -1.43,1.99 -1.68,1.82 -1.87,1.59 -2.06,1.36 -2.20,1.10 -2.33,0.83 -2.40,0.54 -2.46,0.24 -2.46,-0.04 -2.45,-0.34 -2.37,-0.63 -2.30,-0.92 -2.15,-1.18 -2.01,-1.45 -1.81,-1.67 -1.60,-1.88 -1.35,-2.05 -1.10,-2.21 -0.82,-2.32 -0.54,-2.42 -0.54,-2.42 L -0.54,-2.42 Z"></path></g><g transform="translate(29.610748291015625 61.9007641601562) rotate(0 126 41.40757751464848)"><text x="0" y="0" font-family="Virgil, Segoe UI Emoji" font-size="66.25212402343757px" fill="#2f9e44" text-anchor="start" style="white-space: pre;" direction="ltr" dominant-baseline="text-before-edge">Django </text></g></svg>