<?xml version="1.0" encoding="UTF-8" standalone="no"?>
<!DOCTYPE svg PUBLIC "-//W3C//DTD SVG 1.1//EN" "http://www.w3.org/Graphics/SVG/1.1/DTD/svg11.dtd">
<svg width="100%" height="100%" viewBox="0 0 132 28" version="1.1" xmlns="http://www.w3.org/2000/svg" xmlns:xlink="http://www.w3.org/1999/xlink" xml:space="preserve" xmlns:serif="http://www.serif.com/" style="fill-rule:evenodd;clip-rule:evenodd;stroke-linejoin:round;stroke-miterlimit:2;">
    <g transform="matrix(0.214391,0,0,0.214391,16.0644,-0.0851424)">
        <path d="M2.87,82.111C9.602,89.12 12.174,90.108 17.808,100.69C27.017,117.99 25.661,125.15 28.392,128.443C31.124,131.736 43.643,134.401 52.179,119.349C60.715,104.297 74.031,62.747 91.103,37.816C108.176,12.886 116.143,5.673 121.264,1.91C126.386,-1.853 110.158,-1.052 78.242,33.896C56.049,58.2 40.343,91.754 40.343,91.754C40.343,91.754 35.904,73.409 26.002,61.179C16.101,48.949 -8.311,70.469 2.87,82.111Z" style="fill:rgb(237,130,34);fill-rule:nonzero;"/>
    </g>
    <g transform="matrix(0.214391,0,0,0.214391,16.0644,-0.0851424)">
        <path d="M98.884,76.364L92.013,96.203L105.938,96.203L98.884,76.364ZM90.967,57.799C91.482,56.495 92.377,55.843 93.651,55.843L104.345,55.843C105.589,55.843 106.468,56.495 106.984,57.799L130.826,118.817C131.343,120.091 130.933,120.728 129.599,120.728L116.585,120.728C115.281,120.728 114.416,120.091 113.992,118.817L110.943,110.263L87.099,110.263L84.141,118.817C83.716,120.091 82.837,120.728 81.502,120.728L68.489,120.728C67.184,120.728 66.775,120.091 67.26,118.817L90.967,57.799ZM131.359,109.58C131.131,109.277 130.972,108.966 130.881,108.647C130.789,108.329 130.797,108.003 130.904,107.669C131.009,107.336 131.245,106.987 131.609,106.623L139.162,99.433C139.587,99.009 140.027,98.796 140.482,98.796C140.815,98.796 141.157,98.887 141.506,99.069C141.854,99.251 142.195,99.495 142.53,99.797C143.349,100.465 144.266,101.201 145.282,102.004C146.298,102.808 147.383,103.551 148.536,104.234C149.688,104.916 150.902,105.485 152.176,105.94C153.45,106.395 154.754,106.623 156.089,106.623C157.575,106.623 158.789,106.456 159.729,106.122C160.669,105.789 161.413,105.349 161.959,104.803C162.505,104.257 162.876,103.612 163.074,102.869C163.271,102.126 163.369,101.344 163.369,100.525C163.369,99.615 163.051,98.804 162.414,98.091C161.777,97.379 160.988,96.757 160.048,96.226C159.107,95.695 158.121,95.232 157.09,94.838C156.059,94.444 155.148,94.11 154.36,93.837C150.871,92.624 147.785,91.304 145.1,89.878C142.416,88.453 140.178,86.875 138.389,85.146C136.599,83.417 135.241,81.506 134.317,79.413C133.391,77.32 132.929,74.999 132.929,72.451C132.929,69.751 133.505,67.294 134.658,65.08C135.81,62.866 137.426,60.977 139.504,59.415C141.581,57.853 144.069,56.639 146.966,55.774C149.862,54.91 153.07,54.478 156.59,54.478C158.561,54.478 160.555,54.682 162.573,55.092C164.59,55.501 166.532,56.086 168.397,56.844C170.263,57.602 172.007,58.505 173.63,59.551C175.252,60.598 176.625,61.743 177.748,62.986C178.354,63.685 178.658,64.352 178.658,64.989C178.658,65.626 178.309,66.293 177.611,66.991L170.923,74.134C170.468,74.589 169.997,74.817 169.512,74.817C169.118,74.817 168.739,74.703 168.375,74.476C168.011,74.248 167.631,73.968 167.237,73.634C165.659,72.208 164.036,71.071 162.368,70.221C160.7,69.372 158.789,68.947 156.635,68.947C155.816,68.947 154.997,69.015 154.178,69.152C153.359,69.288 152.623,69.532 151.971,69.88C151.319,70.229 150.788,70.684 150.379,71.245C149.969,71.807 149.764,72.496 149.764,73.315C149.764,74.134 149.992,74.84 150.447,75.431C150.902,76.023 151.569,76.569 152.449,77.069C153.328,77.57 154.398,78.055 155.657,78.525C156.915,78.996 158.334,79.489 159.911,80.004C163.005,81.036 165.834,82.113 168.397,83.235C170.96,84.357 173.159,85.685 174.995,87.216C176.83,88.748 178.256,90.576 179.272,92.699C180.288,94.823 180.797,97.401 180.797,100.434C180.797,103.62 180.167,106.517 178.908,109.125C177.649,111.734 175.905,113.956 173.676,115.791C171.446,117.627 168.814,119.045 165.781,120.046C162.747,121.047 159.441,121.547 155.862,121.547C153.616,121.547 151.387,121.251 149.173,120.66C146.958,120.068 144.827,119.272 142.78,118.271C140.732,117.27 138.806,116.103 137.001,114.767C135.196,113.433 133.566,112.008 132.11,110.49C131.837,110.187 131.586,109.884 131.359,109.58ZM184.218,57.799C184.218,56.495 184.855,55.843 186.129,55.843L233.542,55.843C234.816,55.843 235.453,56.495 235.453,57.799L235.453,68.856C235.453,70.161 234.816,70.813 233.542,70.813L218.026,70.813L218.026,118.817C218.026,120.091 217.373,120.728 216.07,120.728L203.466,120.728C202.191,120.728 201.554,120.091 201.554,118.817L201.554,70.813L186.129,70.813C184.855,70.813 184.218,70.161 184.218,68.856L184.218,57.799Z" style="fill:rgb(237,130,34);fill-rule:nonzero;"/>
    </g>
    <g transform="matrix(0.214391,0,0,0.214391,16.0644,-0.0851424)">
        <path d="M285.536,78.753C284.246,75.766 282.465,73.164 280.19,70.949C277.914,68.735 275.222,66.984 272.113,65.694C269.003,64.405 265.644,63.76 262.034,63.76L248.884,63.76L248.884,112.811L262.034,112.811C265.644,112.811 269.003,112.174 272.113,110.9C275.222,109.626 277.914,107.882 280.19,105.667C282.465,103.453 284.246,100.86 285.536,97.886C286.825,94.914 287.47,91.729 287.47,88.331C287.47,84.934 286.825,81.741 285.536,78.753ZM240.421,57.344C240.421,56.343 240.922,55.843 241.923,55.843L262.717,55.843C267.358,55.843 271.703,56.715 275.753,58.459C279.803,60.204 283.329,62.554 286.332,65.512C289.335,68.47 291.694,71.913 293.408,75.841C295.121,79.77 295.979,83.933 295.979,88.331C295.979,92.73 295.129,96.893 293.431,100.821C291.731,104.75 289.404,108.193 286.446,111.15C283.488,114.108 280.008,116.444 276.003,118.158C271.999,119.872 267.677,120.728 263.035,120.728L241.923,120.728C240.922,120.728 240.421,120.213 240.421,119.181L240.421,57.344ZM304.45,57.299C304.45,56.298 304.951,55.797 305.952,55.797L348.724,55.797C349.239,55.797 349.641,55.919 349.929,56.161C350.217,56.405 350.362,56.783 350.362,57.299L350.362,62.759C350.362,63.275 350.217,63.662 349.929,63.919C349.641,64.177 349.239,64.306 348.724,64.306L312.914,64.306L312.914,82.325L340.624,82.325C341.14,82.325 341.564,82.454 341.898,82.712C342.232,82.97 342.399,83.357 342.399,83.872L342.399,89.241C342.399,89.757 342.232,90.136 341.898,90.379C341.564,90.622 341.14,90.743 340.624,90.743L312.914,90.743L312.914,112.129L348.678,112.129C349.193,112.129 349.595,112.25 349.884,112.493C350.172,112.736 350.316,113.115 350.316,113.63L350.316,119.181C350.316,119.697 350.172,120.084 349.884,120.342C349.595,120.6 349.193,120.728 348.678,120.728L305.952,120.728C304.951,120.728 304.45,120.213 304.45,119.181L304.45,57.299ZM354.966,109.33C354.784,108.86 354.95,108.368 355.466,107.851L359.334,104.439C359.607,104.196 359.925,104.075 360.29,104.075C360.774,104.075 361.32,104.378 361.928,104.985C362.929,106.107 364.081,107.177 365.386,108.193C366.69,109.209 368.1,110.104 369.617,110.877C371.134,111.651 372.741,112.273 374.441,112.743C376.139,113.213 377.899,113.448 379.719,113.448C381.326,113.448 383.033,113.236 384.838,112.811C386.642,112.387 388.311,111.712 389.843,110.786C391.374,109.861 392.641,108.67 393.642,107.214C394.643,105.758 395.144,103.999 395.144,101.936C395.144,100.662 394.848,99.532 394.257,98.546C393.665,97.561 392.884,96.681 391.913,95.907C390.942,95.134 389.835,94.459 388.592,93.882C387.347,93.306 386.073,92.798 384.769,92.358C383.465,91.919 382.183,91.524 380.925,91.175C379.665,90.827 378.52,90.515 377.489,90.242C373.94,89.241 370.884,88.188 368.321,87.08C365.757,85.973 363.649,84.722 361.996,83.326C360.342,81.931 359.114,80.331 358.31,78.525C357.506,76.721 357.104,74.62 357.104,72.223C357.104,69.797 357.597,67.545 358.583,65.466C359.569,63.389 361.01,61.576 362.906,60.029C364.801,58.482 367.122,57.269 369.868,56.389C372.613,55.509 375.744,55.069 379.264,55.069C381.266,55.069 383.245,55.29 385.202,55.729C387.158,56.169 389.039,56.791 390.844,57.595C392.648,58.399 394.355,59.369 395.963,60.507C397.57,61.644 399.026,62.926 400.331,64.352C400.725,64.777 400.938,65.216 400.968,65.671C400.998,66.126 400.801,66.581 400.377,67.036L397.055,70.312C396.691,70.585 396.357,70.722 396.054,70.722C395.72,70.722 395.401,70.624 395.098,70.426C394.795,70.229 394.476,69.979 394.143,69.675C393.263,68.918 392.277,68.144 391.185,67.355C390.093,66.566 388.917,65.853 387.659,65.216C386.4,64.579 385.065,64.056 383.655,63.646C382.244,63.237 380.765,63.032 379.218,63.032C377.823,63.032 376.336,63.176 374.759,63.464C373.181,63.753 371.733,64.238 370.414,64.92C369.094,65.603 368.002,66.529 367.138,67.696C366.273,68.864 365.841,70.343 365.841,72.132C365.841,73.741 366.25,75.098 367.069,76.205C367.888,77.313 368.973,78.26 370.323,79.049C371.672,79.838 373.219,80.52 374.964,81.096C376.708,81.673 378.505,82.234 380.356,82.78C383.086,83.599 385.839,84.479 388.614,85.419C391.39,86.36 393.893,87.543 396.122,88.968C398.352,90.394 400.172,92.138 401.582,94.201C402.993,96.264 403.698,98.827 403.698,101.891C403.698,105.076 403.046,107.897 401.742,110.354C400.437,112.811 398.655,114.874 396.395,116.542C394.135,118.211 391.488,119.47 388.455,120.319C385.421,121.168 382.176,121.593 378.718,121.593C376.716,121.593 374.675,121.343 372.598,120.842C370.52,120.342 368.487,119.621 366.501,118.681C364.513,117.741 362.602,116.596 360.767,115.245C358.932,113.896 357.271,112.372 355.785,110.672C355.421,110.248 355.148,109.801 354.966,109.33ZM436.605,83.781L465.453,118.772C465.847,119.227 465.938,119.667 465.726,120.091C465.513,120.517 465.149,120.728 464.634,120.728L457.263,120.728C456.504,120.728 455.867,120.304 455.351,119.454L430.871,89.878L420.088,101.345L420.088,119.09C420.088,120.182 419.587,120.728 418.586,120.728L413.126,120.728C412.155,120.728 411.67,120.182 411.67,119.09L411.67,57.481C411.67,56.965 411.791,56.556 412.034,56.252C412.276,55.95 412.64,55.797 413.126,55.797L418.541,55.797C418.905,55.797 419.253,55.95 419.587,56.252C419.92,56.556 420.088,56.965 420.088,57.481L420.088,89.56L450.073,56.935C450.498,56.45 450.877,56.139 451.211,56.002C451.544,55.866 451.878,55.797 452.212,55.797L459.674,55.797C460.281,55.797 460.659,56.041 460.812,56.525C460.963,57.011 460.841,57.466 460.448,57.89L436.605,83.781Z" style="fill:white;fill-rule:nonzero;"/>
    </g>
</svg>
